# xmcd
# Copyright (c) 1998 CDDB Inc.
#
# Track frame offsets:
#	150
#	29437
#	51525
#	80840
#	103002
#	122347
#	140695
#	162555
#	192270
#	211030
#	228702
#	248297
#	270755
#	297732
#	323802
#
# Disc length: 4603 seconds
#
# Revision: 1
# Processed by: cddbd v1.4PL0 Copyright (c) Steve Scherf et al.
# Submitted via: audiograbber 1.70
#
DISCID=db11f90f
DTITLE=Michael Jackson - The very best
DYEAR=1900
DGENRE=
TTITLE0=Morphine
TTITLE1=Dirty Diana
TTITLE2=Superfly sister
TTITLE3=Billie Jean
TTITLE4=Black or white
TTITLE5=Come together
TTITLE6=DS
TTITLE7=History
TTITLE8=Just good friends
TTITLE9=Liberian girl
TTITLE10=Smooth criminal
TTITLE11=The way you make me feel
TTITLE12=Thriller
TTITLE13=You are not alone
TTITLE14=They don't care about us
EXTD=
EXTT0=
EXTT1=
EXTT2=
EXTT3=
EXTT4=
EXTT5=
EXTT6=
EXTT7=
EXTT8=
EXTT9=
EXTT10=
EXTT11=
EXTT12=
EXTT13=
EXTT14=
PLAYORDER=
